PathFileType	4	(X/Y/Z)	OpenSim_Sub03_EMGBaseline_Accel.trc
DataRate	CameraRate	NumFrames	NumMarkers	Units	OrigDataRate	OrigDataStartFrame	OrigNumFrames
100	100	35	8	m	100	1	7372
Frame#	Time	torso_imu_offset_imu	pelvis_imu_offset_imu	tibia_r_imu_offset_imu	femur_r_imu_offset_imu	tibia_l_imu_offset_imu	femur_l_imu_offset_imu	toes_r_imu_offset_imu	toes_l_imu_offset_imu
				X1	Y1	Z1	X2	Y2	Z2	X3	Y3	Z3	X4	Y4	Z4	X5	Y5	Z5	X6	Y6	Z6	X7	Y7	Z7	X8		Y8	Z8	

1	0	9.22198873	0.89230547	5.99870887	9.71478021	-0.15652648	1.99669892	9.76744398	1.31241735	0.91259549	9.72109327	-0.99315699	1.06211641	9.73621963	-0.87229608	0.81787138	9.79944714	0.10233606	-0.63471657	5.94728962	-2.04359234	7.75837319	5.53047652	0.81963288	10.82102460
2	0.01000000	9.18748650	0.88902897	5.92230542	9.71965118	-0.16899298	2.01426057	9.80872628	1.32470330	0.95808808	9.74376742	-1.00910508	1.00484965	9.74886296	-0.83085450	0.82936272	9.82746310	0.11533473	-0.62353873	5.95147475	-2.03094254	7.76466352	5.54882748	0.82970385	10.80406573
3	0.02000000	9.21286608	0.87732331	5.94353659	9.71363348	-0.16155018	1.98370964	9.78768894	1.31702438	0.96248858	9.72506153	-1.02645800	0.99918160	9.72949907	-0.87837211	0.82413550	9.79056042	0.17135102	-0.62079030	5.95996251	-2.01796434	7.73938834	5.55418990	0.82166295	10.79786753
4	0.03000000	9.20955277	0.86761243	5.95982138	9.70299946	-0.17229663	1.94621564	9.77223738	1.25499741	0.94091177	9.66661513	-1.00141675	0.98318915	9.74972796	-0.94496065	0.82056593	9.76475596	0.23436771	-0.61965447	5.95293496	-2.05274971	7.74283291	5.53915468	0.78145836	10.81585207
5	0.04000000	9.19930598	0.86032631	5.93125123	9.65660775	-0.18295991	1.96923797	9.80234805	1.31350542	0.92229287	9.69456918	-0.97519236	0.98150620	9.75940840	-0.94815295	0.82770764	9.78938414	0.23687078	-0.62256617	5.95514520	-2.05248851	7.75631386	5.54687323	0.81151376	10.83708803
6	0.05000000	9.21307321	0.86991407	5.95211773	9.67786053	-0.15874204	1.93997040	9.73858850	1.43304939	0.85797124	9.67872170	-0.98470621	1.00868200	9.70849520	-0.98987636	0.76972430	9.75401878	0.27353793	-0.64397154	6.00397817	-1.98132919	7.74531040	5.56907512	0.78922893	10.78219034
7	0.06000000	9.19488169	0.86278463	5.95229591	9.66672561	-0.14972268	1.94302202	9.73072040	1.39212157	0.88313851	9.65142776	-1.04627830	0.98549413	9.72421864	-0.88193470	0.78913592	9.74093015	0.23576516	-0.65014205	5.99295500	-2.01878091	7.72791777	5.53802991	0.80293730	10.80942522
8	0.07000000	9.19714114	0.85137672	5.96829127	9.64754600	-0.18229543	1.98038821	9.75904883	1.28916660	0.88908977	9.67316259	-1.04980253	1.03069337	9.74819698	-0.76748480	0.84019938	9.77400829	0.18322975	-0.67951605	5.94746723	-2.05289770	7.76791734	5.52991465	0.82647929	10.80454433
9	0.08000000	9.25890549	0.84202696	5.96863013	9.67498974	-0.18868778	1.92597303	9.75886993	1.27560473	0.89612194	9.69953596	-1.04714086	1.04827923	9.72244298	-0.79199214	0.82359202	9.74182525	0.21826578	-0.68479520	5.97221814	-2.03207881	7.75845337	5.55744537	0.79542854	10.76429124
10	0.09000000	9.23217304	0.84743459	5.95722475	9.68780146	-0.18473740	1.93346088	9.76719581	1.21384867	0.94234891	9.71696106	-1.04544592	1.04581703	9.71973150	-0.70638417	0.82099957	9.77094130	0.25392718	-0.61733344	5.92643798	-2.04147872	7.75027877	5.51762895	0.83072920	10.79570126
11	0.10000000	9.17797682	0.84754439	5.97239789	9.70983244	-0.19425297	1.91896765	9.80772972	1.23172905	0.95100760	9.70939463	-1.03662165	1.01917028	9.73744315	-0.73017992	0.87348359	9.81755814	0.28670237	-0.63421896	5.94582050	-2.04052345	7.77402731	5.56286684	0.82071915	10.81471869
12	0.11000000	9.19729915	0.85773816	5.98506582	9.71523685	-0.21836041	1.87635013	9.79623649	1.33868429	0.91174702	9.69634156	-1.13254476	0.98991418	9.74217632	-0.90350219	0.82902118	9.78496672	0.29025618	-0.57056904	5.98955886	-1.98668629	7.76103592	5.56971931	0.78872450	10.81971699
13	0.12000000	9.19732900	0.88162449	5.96470669	9.72140330	-0.20019665	1.89194896	9.75343429	1.33656703	0.93552384	9.69833560	-1.15399512	0.97119629	9.76557596	-0.93264882	0.78430535	9.77506953	0.30023990	-0.62249602	5.94352218	-2.00666807	7.74927777	5.53385609	0.77473938	10.80204143
14	0.13000000	9.17694788	0.84003369	5.94068511	9.69548764	-0.23783082	1.86558022	9.75372301	1.27243994	0.93201427	9.67455139	-1.16882591	0.97343644	9.75000005	-0.81530300	0.79490103	9.75610856	0.27598841	-0.68884867	5.93398459	-2.00639456	7.77746640	5.51643392	0.81167452	10.81596165
15	0.14000000	9.17621846	0.86175765	5.90494433	9.68658314	-0.22291281	1.91318342	9.81069282	1.24172507	0.91601257	9.69040277	-1.19661052	1.03094226	9.75921077	-0.69394284	0.81342194	9.76154519	0.29639125	-0.65975523	5.90497287	-2.01106315	7.75436856	5.47754765	0.82851227	10.84046847
16	0.15000000	9.18606284	0.88832321	5.93343939	9.70852921	-0.19191057	1.91860546	9.82535334	1.22690672	0.92319005	9.75961052	-1.15783460	1.06069086	9.77002652	-0.59394519	0.80927641	9.75305178	0.32965659	-0.66472787	5.89015532	-2.06351224	7.76270908	5.47224646	0.84602986	10.86091018
17	0.16000000	9.16018677	0.91078545	5.93703276	9.65970748	-0.19536010	1.90440947	9.84004259	1.17761651	0.91246418	9.73915351	-1.18983892	1.02353099	9.80066742	-0.60424498	0.83539633	9.74531225	0.34693214	-0.64602421	5.92324995	-2.05079903	7.76906881	5.46290343	0.83965104	10.83238757
18	0.17000000	9.16437373	0.94155193	5.89929229	9.65337462	-0.23070497	1.89792749	9.80274866	1.14417940	0.87013978	9.66831671	-1.25214367	1.06226306	9.78660420	-0.74021329	0.80583566	9.81689868	0.31537203	-0.61724284	5.95063766	-1.99461615	7.74333060	5.46071051	0.82684334	10.84972151
19	0.18000000	9.17648371	0.89017002	5.99180177	9.64525838	-0.22829539	1.88393742	9.70257368	1.18853940	0.87384332	9.63050620	-1.29077423	1.06374919	9.78697371	-0.92515263	0.81607104	9.85029023	0.30333028	-0.60058836	5.94945252	-2.02505487	7.76233889	5.50284954	0.80076400	10.85226321
20	0.19000000	9.14390554	0.87934747	6.06028222	9.60599259	-0.20824460	1.84711162	9.72304541	1.28606637	0.91830335	9.65142172	-1.32225441	0.95113952	9.76174116	-1.04791863	0.77740342	9.79255769	0.28565246	-0.59656605	5.97395044	-2.00868056	7.76074188	5.50841778	0.76732656	10.82704941
21	0.20000000	9.10694463	0.86870741	6.00198873	9.57350872	-0.21943729	1.87738078	9.76296868	1.32756832	0.90004066	9.61824923	-1.33381201	0.98702118	9.71619513	-1.06269960	0.78182582	9.80234979	0.23577445	-0.62735488	5.96156453	-1.99973117	7.75268025	5.50320272	0.77476284	10.83171284
22	0.21000000	9.12776686	0.83778554	5.94424183	9.56819375	-0.22669199	1.84865289	9.79145952	1.24223083	0.93130307	9.64098539	-1.33649775	1.03372104	9.72204423	-1.09298068	0.80219045	9.82322885	0.20108120	-0.54394492	5.93640233	-2.02690309	7.76394788	5.51036439	0.77182877	10.83308180
23	0.22000000	9.15277517	0.81201047	5.90732449	9.59290798	-0.22159690	1.80922923	9.80803267	1.22136608	0.87768742	9.70247083	-1.31863365	1.00828498	9.78251798	-1.06654112	0.76770295	9.79973024	0.18083153	-0.66587721	5.93985307	-2.02799609	7.76247116	5.46933944	0.80743573	10.81511988
24	0.23000000	9.15196537	0.82643146	5.88762791	9.62472389	-0.24353559	1.82814315	9.79028768	1.30831072	0.82909296	9.67678386	-1.30420219	1.08631801	9.79019463	-1.08062539	0.84124658	9.82296769	0.22172165	-0.68645891	5.93796786	-2.01052041	7.77054626	5.42724479	0.79392032	10.82831280
25	0.24000000	9.20199181	0.85049180	5.84832283	9.65180397	-0.21013688	1.77657880	9.75881752	1.37297957	0.83491588	9.66661820	-1.29583187	1.08414730	9.76496089	-1.17157700	0.87905429	9.91231449	0.22009777	-0.58493322	5.93008763	-2.03229338	7.78593165	5.49138686	0.75821465	10.83735016
26	0.25000000	9.25655561	0.84590761	5.83035966	9.70005566	-0.20962554	1.68915621	9.73704179	1.49496956	0.76453866	9.65363336	-1.27943788	1.05225694	9.79407057	-1.36263509	0.81749278	9.90091587	0.27554768	-0.62362915	5.94074576	-2.00640614	7.76599041	5.49902437	0.76246977	10.81555937
27	0.26000000	9.27733208	0.82392875	5.81248790	9.77352201	-0.21676936	1.68675970	9.77617147	1.55913135	0.81373867	9.67353193	-1.22051782	1.07922931	9.78855773	-1.54084275	0.79426837	9.86307047	0.32051656	-0.61437030	5.93793328	-1.99033158	7.77032256	5.52466505	0.78422728	10.83807233
28	0.27000000	9.26035252	0.80702706	5.84463306	9.84712958	-0.16341207	1.64911656	9.80691584	1.56443669	0.80364568	9.62112402	-1.18775125	1.01156399	9.72517547	-1.49263240	0.77596613	9.84477979	0.31312110	-0.57970156	5.94669416	-2.03394397	7.76928600	5.57811457	0.73569052	10.84042814
29	0.28000000	9.31575852	0.78689853	5.82434695	9.86829091	-0.15849623	1.63529840	9.77457595	1.69008221	0.72930042	9.65280986	-1.18375484	0.94310092	9.70938711	-1.47602992	0.75685815	9.84518799	0.27677937	-0.60551108	5.96833211	-1.98117780	7.76758236	5.54736749	0.74255449	10.80821771
30	0.29000000	9.34378623	0.80473698	5.85293940	9.92287524	-0.14674186	1.65691126	9.74531751	1.81067138	0.71103062	9.70249325	-1.16680526	0.96490774	9.69113707	-1.39207923	0.76348071	9.78640391	0.29669881	-0.68288875	5.98366361	-1.96017040	7.76530339	5.53335780	0.76784659	10.80150185
31	0.30000000	9.35439331	0.78677857	5.87196283	9.95604750	-0.10307005	1.67886645	9.76703940	1.64327916	0.73078964	9.66564846	-1.15511959	0.98674672	9.75104262	-1.22599587	0.81787779	9.78110914	0.33714362	-0.70718366	5.98295143	-2.00166127	7.76903435	5.51539859	0.79508587	10.83787929
32	0.31000000	9.32847073	0.79551186	5.85995181	9.97837278	-0.13902016	1.71823457	9.73294822	1.42759467	0.83452924	9.67105307	-1.10780045	0.96949124	9.76935290	-1.11628884	0.77282390	9.81681882	0.34316178	-0.66737091	5.97352300	-2.00259797	7.75754775	5.51068536	0.79450679	10.84495975
33	0.32000000	9.32414636	0.79880054	5.89657572	9.96214939	-0.10257692	1.70645748	9.73974356	1.22843674	0.86253323	9.64627855	-1.11817312	1.14724742	9.73206069	-1.09405735	0.75034463	9.80999183	0.35963581	-0.63120217	5.93106700	-2.05796900	7.76038591	5.52340063	0.78496573	10.81951697
34	0.33000000	9.32836261	0.78782742	5.91105694	9.88351880	-0.09015552	1.72479576	9.76566540	1.18165351	0.92693901	9.65785443	-1.07445176	1.21799919	9.71812264	-1.04463071	0.81084936	9.80021663	0.36999931	-0.59319769	5.88024636	-2.11416376	7.76882129	5.50632944	0.79649637	10.84253946
35	0.34000000	9.29602154	0.79525251	5.91811676	9.79633823	-0.11985510	1.73457638	9.76703512	1.54149628	0.85562052	9.71809397	-1.12054509	1.16852612	9.73596542	-1.05736608	0.81753277	9.80115299	0.40158161	-0.59507628	5.97011195	-1.99323560	7.78767086	5.53009766	0.77567217	10.83808094
